<?xml version="1.0" standalone="no"?>
<!DOCTYPE svg PUBLIC "-//W3C//DTD SVG 20010904//EN"
 "http://www.w3.org/TR/2001/REC-SVG-20010904/DTD/svg10.dtd">
<svg version="1.0" xmlns="http://www.w3.org/2000/svg"
 width="1128.000000pt" height="572.000000pt" viewBox="0 0 1128.000000 572.000000"
 preserveAspectRatio="xMidYMid meet">

<g transform="translate(0.000000,572.000000) scale(0.100000,-0.100000)"
fill="#000000" stroke="none">
<path d="M4483 5544 c-3 -8 -2 -43 3 -76 l9 -61 135 -23 c186 -31 352 -83 505
-159 304 -149 475 -343 552 -626 24 -89 24 -326 0 -424 -53 -210 -189 -371
-402 -475 -178 -87 -360 -126 -637 -137 l-158 -6 -5 -31 c-3 -17 -5 -63 -3
-102 l3 -72 87 -4 c75 -4 96 -9 162 -42 100 -49 164 -111 294 -283 99 -132
1378 -1681 1748 -2118 340 -401 565 -574 859 -660 200 -58 359 -67 614 -35
205 26 262 46 292 102 15 28 -20 39 -172 54 -154 15 -224 35 -344 97 -116 61
-226 145 -350 271 -152 152 -1211 1401 -2267 2673 -37 45 -68 85 -68 90 0 4
85 49 188 99 212 104 333 181 444 284 135 124 213 247 265 417 24 81 26 102
26 263 1 149 -3 187 -21 255 -92 337 -361 567 -804 685 -217 57 -245 60 -611
60 -297 0 -338 -2 -344 -16z"/>
<path d="M7880 5545 c0 -22 35 -54 67 -61 179 -39 321 -101 388 -169 51 -51
89 -120 112 -207 15 -55 17 -143 20 -695 2 -347 0 -646 -5 -664 -21 -83 -84
-89 -949 -89 l-653 0 0 -110 0 -110 638 0 c606 -1 766 -6 892 -31 l56 -11 13
-361 c21 -615 24 -854 13 -1022 -13 -185 -33 -262 -90 -351 -67 -103 -153
-156 -290 -180 -145 -26 -197 -70 -141 -120 26 -24 92 -24 354 -5 273 21 863
19 1116 -3 214 -19 269 -14 290 25 15 29 3 68 -26 79 -13 5 -67 14 -119 19
-107 11 -226 41 -303 78 -67 31 -136 107 -163 181 -54 142 -52 86 -50 1737 1
866 5 1562 11 1603 17 137 45 210 108 275 51 54 96 75 203 92 159 25 212 48
206 88 l-3 22 -847 3 c-750 2 -848 0 -848 -13z"/>
<path d="M4993 730 c-171 -36 -264 -202 -203 -362 26 -70 89 -129 163 -154 61
-20 162 -22 234 -5 49 12 54 11 98 -15 l47 -27 20 20 20 20 -39 23 c-21 13
-40 25 -42 26 -2 2 12 21 32 43 36 40 67 119 67 171 0 47 -29 124 -60 162 -45
55 -140 98 -226 103 -38 2 -88 0 -111 -5z m155 -62 c67 -17 126 -79 142 -150
11 -46 10 -63 -4 -109 -8 -30 -26 -67 -40 -84 l-24 -29 -35 27 c-42 32 -49 33
-72 8 -17 -19 -16 -21 15 -39 41 -26 25 -36 -55 -36 -129 0 -206 71 -213 194
-10 167 114 261 286 218z"/>
<path d="M2413 464 l-122 -255 46 3 45 3 31 73 31 72 141 0 141 0 30 -72 30
-73 48 -3 c28 -2 47 1 45 6 -2 6 -58 121 -123 256 l-119 246 -51 0 -51 -1
-122 -255z m227 77 c27 -62 50 -115 50 -117 0 -2 -47 -4 -105 -4 -58 0 -105 3
-105 8 0 9 103 232 107 229 1 -2 25 -54 53 -116z"/>
<path d="M3080 465 l0 -255 40 0 40 0 0 115 0 115 145 0 145 0 0 30 0 30 -145
0 -145 0 0 80 0 80 165 0 165 0 0 30 0 30 -205 0 -205 0 0 -255z"/>
<path d="M3710 466 l0 -256 45 0 45 0 0 111 0 111 124 -3 c115 -4 126 -6 150
-28 26 -24 46 -93 46 -156 l0 -35 54 0 54 0 -13 28 c-8 15 -17 55 -21 87 -9
83 -25 111 -71 123 -32 8 -35 10 -18 16 71 26 96 59 97 127 0 49 -20 81 -69
105 -33 16 -66 19 -230 22 l-193 3 0 -255z m384 173 c19 -15 26 -30 26 -54 0
-79 -29 -94 -196 -102 l-124 -6 0 91 0 92 134 0 c120 0 136 -2 160 -21z"/>
<path d="M4450 465 l0 -255 45 0 45 0 0 255 0 255 -45 0 -45 0 0 -255z"/>
<path d="M5602 528 c3 -215 10 -240 78 -285 76 -52 235 -63 328 -23 104 45
122 95 122 340 l0 160 -45 0 -45 0 0 -182 c0 -205 -7 -230 -72 -264 -44 -23
-151 -24 -198 -1 -65 31 -70 52 -70 261 l0 186 -51 0 -51 0 4 -192z"/>
<path d="M6390 465 l0 -255 215 0 215 0 0 25 0 25 -175 0 -175 0 0 90 0 90
165 0 165 0 0 30 0 30 -165 0 -165 0 0 80 0 80 175 0 175 0 0 30 0 30 -215 0
-215 0 0 -255z"/>
<path d="M2121 272 c-15 -27 -2 -61 25 -68 34 -9 56 13 52 50 -3 27 -7 31 -35
34 -23 2 -34 -2 -42 -16z"/>
</g>
</svg>
